<mxfile host="drawio-plugin" modified="2022-12-21T14:04:58.473Z" agent="5.0 (Windows NT 6.2; Win64; x64) AppleWebKit/537.36 (KHTML, like Gecko) Chrome/87.0.4280.141 Safari/537.36" etag="PrwYJhLpgRakIKXxqFbW" version="13.7.9" type="embed"><diagram id="fqDff2OOT4ordfgiPYyi" name="Page-1"><mxGraphModel dx="760" dy="575" grid="0" gridSize="9" guides="1" tooltips="1" connect="1" arrows="1" fold="1" page="1" pageScale="1" pageWidth="850" pageHeight="300" math="0" shadow="0"><root><mxCell id="0"/><mxCell id="1" parent="0"/><mxCell id="gg7sQDAv7kerzeQKTBUp-1" value="" style="shape=image;verticalLabelPosition=bottom;labelBackgroundColor=default;verticalAlign=top;imageAspect=0;image=data:image/png,iVBORw0KGgoAAAANSUhEUgAAAEAAAAAoCAYAAABOzvzpAAAAAXNSR0IArs4c6QAAASBJREFUaENjZBjhgHGE+59hNABGU8AID4HRLDDCE8BoITiaBUazwAgPgdEsMMITwGgtMJoFRrPACA+B0SwwwhPAaC0wmgVGs8AQCAFjI9v/IGeePXeY6imW6gZSOzxhnq92VWdo3X0THAgwMWx2eXjmgYV3bJ/EAGKDaHwBN+gD4Gxnzf+0lQcZEiX5GOY//wT2XGJBA9Zwzo51AotPXbyPAcQG0fMnNAyPAIClAFCsSqoLYQQANs+DFA35AIAld+QUAEvmsFCABcjzm+/AgQOiYdmAULkx6LMAegAQKgOQkwYhz4PUDvoAADlyRNcC1K5V0M0bEimAloEwGgC0DN2hYPZoChgKsURLN46mAFqG7lAwezQFDIVYoqUbR3wKAADto1opuPzGaQAAAABJRU5ErkJggg==;" parent="1" vertex="1"><mxGeometry y="40" width="64" height="40" as="geometry"/></mxCell><mxCell id="5" value="" style="shape=image;verticalLabelPosition=bottom;labelBackgroundColor=default;verticalAlign=top;imageAspect=0;image=data:image/png,iVBORw0KGgoAAAANSUhEUgAAAEAAAAAoCAYAAABOzvzpAAAAAXNSR0IArs4c6QAAASBJREFUaENjZBjhgHGE+59hNABGU8AID4HRLDDCE8BoITiaBUazwAgPgdEsMMITwGgtMJoFRrPACA+B0SwwwhPAaC0wmgVGs8AQCAFjI9v/IGeePXeY6imW6gZSOzxhnq92VWdo3X0THAgwMWx2eXjmgYV3bJ/EAGKDaHwBN+gD4Gxnzf+0lQcZEiX5GOY//wT2XGJBA9Zwzo51AotPXbyPAcQG0fMnNAyPAIClAFCsSqoLYQQANs+DFA35AIAld+QUAEvmsFCABcjzm+/AgQOiYdmAULkx6LMAegAQKgOQkwYhz4PUDvoAADlyRNcC1K5V0M0bEimAloEwGgC0DN2hYPZoChgKsURLN46mAFqG7lAwezQFDIVYoqUbR3wKAADto1opuPzGaQAAAABJRU5ErkJggg==;" parent="1" vertex="1"><mxGeometry x="64" y="40" width="64" height="40" as="geometry"/></mxCell><mxCell id="6" value="" style="shape=image;verticalLabelPosition=bottom;labelBackgroundColor=default;verticalAlign=top;imageAspect=0;image=data:image/png,iVBORw0KGgoAAAANSUhEUgAAAEAAAAAoCAYAAABOzvzpAAAAAXNSR0IArs4c6QAAARhJREFUaENjZBjhgHGE+59hNABGU8AID4HRLDDCE8BoITiaBUazwAgPgdEsMMITwGgtMJoFRrPACA+B0SwwwhPA4K8FjI1s/589d5hmKZVmBlMrZa0rT/nfuvsmAygQQIGBy1wPzzyw1I7tkxhAbBBNTMAN+gCY4u39f/7zT2DPJRY0YPV/dqwTWHzq4n0MIDaInj+hYXgEACwFgGJVUl0IIwCweR6kaNgEAHIKgCVzWCjAAuT5zXfgwAHRsGxATPIHqR30WQDkSFhBiK8MQE4axHp+yAQAtQpUbOYMiRQwGgA0DIHRFEDDwB0SRo+mgCERTTR05GgKoGHgDgmjR1PAkIgmGjpyNAXQMHCHhNGjKWBIRBMNHQkAzW1NKbKw0uAAAAAASUVORK5CYII=;" parent="1" vertex="1"><mxGeometry y="80" width="64" height="40" as="geometry"/></mxCell><mxCell id="7" value="" style="shape=image;verticalLabelPosition=bottom;labelBackgroundColor=default;verticalAlign=top;imageAspect=0;image=data:image/png,iVBORw0KGgoAAAANSUhEUgAAAEAAAAAoCAYAAABOzvzpAAAAAXNSR0IArs4c6QAAAVFJREFUaENjZBjhgHGE+59hNABGU8AID4HRLDAUEoCxke1/mDvPnjtM1UijqmG0Cszq6tX/JdWFwMbPn9DAQM1AGBIBAEoBZ84eYpi6eB/D85vvGHZsn0S1QBgSAQBLAdmxTgw1NWtGZgC0tISAUwC1s8GQSAGwLADy/IhMAaAASCxoYABlAVAqoGZBOGRSACgAYGBEB8CIrAVgWQCUAkYDYCS2A2BNYQ/PPKq2AUApasgUgujNbGo1h4dEAKwrT/n/7MpzBikdSQYQDW4MPf9ElebwkAgA5N4gckqgRioYMgEwK9yeQdFYkcG1bAFVYh4WkEMiAC7kJIPHA5KP3aKq54dcIUiNJI9emA6JFECrgZYhkwJGA4CGITCaBWgYuEPC6NEUMCSiiYaOHE0BNAzcIWH0aAoYEtFEQ0eOpgAaBu6QMHo0BQyJaKKhI0d8CgAAwPiTKUZeKUAAAAAASUVORK5CYII=;" parent="1" vertex="1"><mxGeometry y="120" width="64" height="40" as="geometry"/></mxCell><mxCell id="8" value="" style="shape=image;verticalLabelPosition=bottom;labelBackgroundColor=default;verticalAlign=top;imageAspect=0;image=data:image/png,iVBORw0KGgoAAAANSUhEUgAAAEAAAAAoCAYAAABOzvzpAAAAAXNSR0IArs4c6QAAASVJREFUaENjZBjhgHGE+59hNABGU8AID4HRLDDCE8BoITiaBUazwAgPgdEsMMITwGgtMJoFRrPACA+B0SwwFBKAsZHtf5A7z547TPUIo7qB1A5QmOerXdUZWnffBAcCTAybXR6eeWDhHdsnMYDYIBpfwA36ADjbWfM/beVBhkRJPob5zz+BPZdY0IA1nLNjncDiUxfvYwCxQfT8CQ3DIwBgKQAUq5LqQhgBgM3zIEVDPgBgyR05BcCSOSwUYAHy/OY7cOCAaFg2IFRuDPosgB4AhMoA5KRByPMgtYM+AECOHNG1ALVrFXTzhkQKoGUgjAYALUN3KJg9mgKGQizR0o2jKYCWoTsUzB5NAUMhlmjpxtEUQMvQHQpmj6aAoRBLtHTjiE8BAGrZWilHYCA9AAAAAElFTkSuQmCC;" parent="1" vertex="1"><mxGeometry y="160" width="64" height="40" as="geometry"/></mxCell><mxCell id="9" value="" style="shape=image;verticalLabelPosition=bottom;labelBackgroundColor=default;verticalAlign=top;imageAspect=0;image=data:image/png,iVBORw0KGgoAAAANSUhEUgAAAEAAAAAoCAYAAABOzvzpAAAAAXNSR0IArs4c6QAAARxJREFUaENjZBjhgHGE+59hNABGU8AID4HRLDDCE8BoITiaBUazwAgPgdEsMMITwGgtMJoFRrPACA+B0SwwwhPAaC0wmgVGs8AID4HRLDDCE8DQqQWMjWz/gyLr7LnDVE21VDWMVqkJ5vlqV3WG1t03wYEAE8Nmp4dnHlh4x/ZJDCA2iMYVcEMiAM521vxPW3mQIVGSj2H+809gzyUWNGAN7+xYJ7D41MX7GEBsED1/QsPwCABYCgDFqqS6EEYAYPM8SNGQDwBYckdOAbBkDgsFWIA8v/kOHDggGpYN8JUbQyILoAcAoTIAOWkQKjSHRACAPDSiawFa1S4gc4dMCqBVIIwGAK1CdqiYO5oChkpM0cqdoymAViE7VMwFAGezWim1s7dHAAAAAElFTkSuQmCC;" parent="1" vertex="1"><mxGeometry y="200" width="64" height="40" as="geometry"/></mxCell><mxCell id="10" value="" style="shape=image;verticalLabelPosition=bottom;labelBackgroundColor=default;verticalAlign=top;imageAspect=0;image=data:image/png,iVBORw0KGgoAAAANSUhEUgAAAEAAAAAoCAYAAABOzvzpAAAAAXNSR0IArs4c6QAAAKtJREFUaEPtlUEKgDAMBJv/PzpSQRAPbZFGWHe8CTY209k0mvkT5v03AGCAOQEiYC4AQ5AIEAFzAkTAXABuASJABMwJEAFzAbgFJCKQmdlNjYjt+91esCJSF4ALwv195X8jcHIAVhp+fgOAQXR+b8BsbsgB6A2tzoBZ8+dMeZOpr9fY3wKVwCUMAEAhAQwohCtRGgMkjqlwkxhQCFeiNAZIHFPhJjGgEK5E6QP3KyQpLD9nDwAAAABJRU5ErkJggg==;" parent="1" vertex="1"><mxGeometry y="240" width="64" height="40" as="geometry"/></mxCell><mxCell id="11" value="" style="shape=image;verticalLabelPosition=bottom;labelBackgroundColor=default;verticalAlign=top;imageAspect=0;image=data:image/png,iVBORw0KGgoAAAANSUhEUgAAAEAAAAAoCAYAAABOzvzpAAAAAXNSR0IArs4c6QAAAQhJREFUaENjZBjhgHGE+59hNABGU8AID4HRLDDCE8BoITiaBUazwAgPgdEsMMITwGgtMJoFRrPACA+B0SwwwhPAaC0wmgVGs8AgDwFjI9v/Z88dpllKpZnB1ArXdeUp/1t332QABQIoMGDmenjmgZk7tk9iALFBNDkBNegDYIq39//5zz+BPZtY0ACms2OdwPTUxfvAbBA9f0LDyAgAdM/DAmLYBgAsC4CSeUtLCEbMw7LEsA0A9Czw/OY7Bkl1IQYQDQPk5n+Q/iFTBqAXgsiFLDmFH0z/oA+AEV8NUqs6xWXOoE8BowFA4xAYTQE0DuBBb/xoChj0UURjB46mABoH8KA3fsSnAAC7UWQpjOMx6QAAAABJRU5ErkJggg==;" parent="1" vertex="1"><mxGeometry y="280" width="64" height="40" as="geometry"/></mxCell><mxCell id="12" value="" style="shape=image;verticalLabelPosition=bottom;labelBackgroundColor=default;verticalAlign=top;imageAspect=0;image=data:image/png,iVBORw0KGgoAAAANSUhEUgAAAEAAAAAoCAYAAABOzvzpAAAAAXNSR0IArs4c6QAAAVlJREFUaEPtmDELQVEUgI+/YGMzWUzMUkqxK5NBbCQTA4PBD5CyWCgjWZkMlAkZLPwAbzP4A0/n5ZZkPKfO7Z63vO107ne+c+89NwSOfyHH1w/iAaSSad8U6XTek+dLHpDaqG534Ufi4SDsdNgHagjiAaABx9MOxvMteLcnbNYjUgjiARgD6uUs9HpLNwEMBsXAAI42EG+AaQFcvJMGIIBKqw/YAmgB9UZohQEIwHxOA3DyFDAtgAYoABfvAWrAZxbIF5rklyBsKytOgd/5gnIeEA9g1an5j6sH0UQE8B/cBr0X2TwgHsD3OPxtApUFVgCYlDIQS8Ug156RVd7AFA/g0qgGDyLVw5188VZsggiAa/FWAMA9gKrf/71WiW8B6ie233gKgJuw9PhqgPQKceenBnATlh5fDZBeIe781ABuwtLjqwHSK8SdnxrATVh6fDVAeoW483PegDeryaQpul1hmwAAAABJRU5ErkJggg==;" parent="1" vertex="1"><mxGeometry y="320" width="64" height="40" as="geometry"/></mxCell><mxCell id="13" value="" style="shape=image;verticalLabelPosition=bottom;labelBackgroundColor=default;verticalAlign=top;imageAspect=0;image=data:image/png,iVBORw0KGgoAAAANSUhEUgAAAEAAAAAoCAYAAABOzvzpAAAAAXNSR0IArs4c6QAAAQ5JREFUaENjZBjhgHGE+59hNABGU8AID4HRLDDCE8BoITiaBUazwAgPgdEsMMITwGgtMJoFRrPACA+B0SwwwhPAaC0wmgUGexYwNrL9f/bcYZpFFM0MplbAritP+d+6+yYDKBBAgYHLXA/PPLDUju2TGEBsEE1MwA36AJji7f1//vNPYM8lFjRg9X92rBNYfOrifQwgNoieP6FheAQALAWAYlVSXQgjALB5HqRo2AQAcgqAJXNYKMAC5PnNd+DAAdGwbEBM8gepHTJZgFAZgJw0iPX8kAiAEV8LUKs2wWXOoM8CowFA4xAYTQE0DuBBb/xoChj0UURjB46mABoH8KA3fjQFDPooorEDR3wKAAAQ1VQp1L8TPAAAAABJRU5ErkJggg==;" parent="1" vertex="1"><mxGeometry x="64" y="80" width="64" height="40" as="geometry"/></mxCell><mxCell id="15" value="" style="shape=image;verticalLabelPosition=bottom;labelBackgroundColor=default;verticalAlign=top;imageAspect=0;image=data:image/png,iVBORw0KGgoAAAANSUhEUgAAAEAAAAAoCAYAAABOzvzpAAAAAXNSR0IArs4c6QAAAVxJREFUaENjZBjhgHEw+9/YyPY/zH1nzx2miVtpYii1ArW6evV/SXUhsHHzJzQw0CIQBnUAgFLAmbOHGKYu3sfw/OY7hh3bJ1E9EAZ1AMBSQHasE0NNzZqRGQAtLSHgFECrbDCoUwAsC4A8PyJTACgAEgsaGEBZAJQKaFEQDvoUAAoAGBjRATAiawFYFgClgNEAGIntgNEUAK0FRnQWAHnewzOPJq1AkNmDvhpE71hRu0M0qANgXXnK/2dXnjNI6UgygGhwc/j5J6p2iAZ1ACCPByCnBGqmgkEfALPC7RkUjRUZXMsWUDXmYQE6qAPgQk4yeEQo+dgtmnh+0BeCoACgpedHA2AoVIPULPCwjVUO6jKAWoOr+MwZDQB6hPJgtmM0BQzm2KGH20ZTAD1CeTDbMZoCBnPs0MNtoymAHqE8mO0YTQGDOXbo4bbRFECPUB7MdoymgMEcO/RwGwBFZbUpn8Sb5AAAAABJRU5ErkJggg==;" parent="1" vertex="1"><mxGeometry x="64" y="120" width="64" height="40" as="geometry"/></mxCell><mxCell id="16" value="" style="shape=image;verticalLabelPosition=bottom;labelBackgroundColor=default;verticalAlign=top;imageAspect=0;image=data:image/png,iVBORw0KGgoAAAANSUhEUgAAAEAAAAAoCAYAAABOzvzpAAAAAXNSR0IArs4c6QAAAF1JREFUaEPt1QERADAMArHi33SFfOagHBm7+Fv8/hOABsQTQCBeAJ8gAgjEE0AgXgArgAAC8QQQiBfACiCAQDwBBOIFsAIIIBBPAIF4AawAAgjEE0AgXgArgECdwANfiQApEtGAKwAAAABJRU5ErkJggg==;" parent="1" vertex="1"><mxGeometry x="64" y="160" width="64" height="40" as="geometry"/></mxCell><mxCell id="17" value="" style="shape=image;verticalLabelPosition=bottom;labelBackgroundColor=default;verticalAlign=top;imageAspect=0;image=data:image/png,iVBORw0KGgoAAAANSUhEUgAAAEAAAAAoCAYAAABOzvzpAAAAAXNSR0IArs4c6QAAASBJREFUaENjZBjhgHGE+59hNABGU8AID4HRLDDCE8BoITiaBUazwAgPgdEsMMITwGgtMJoFRrPACA+B0SwwwhPAaC0wmgVGs8AID4EhkQWMjWz/g+Lp7LnDVHcv1Q2kdoKCeb7aVZ2hdfdNcCDAxLDZ5eGZBxbesX0SA4gNovEF3KAPgLOdNf/TVh5kSJTkY5j//BPYc4kFDVjDOTvWCSw+dfE+BhAbRM+f0DA8AgCWAkCxKqkuhBEA2DwPUjTkAwCW3JFTACyZw0IBFiDPb74DBw6IhmUDQuXGoM8C6AFAqAxAThqEPA9SO+gDAOTIEV0LULtWQTdvSKQAWgbCaADQMnSHgtmjKWAoxBIt3TiaAmgZukPB7NEUMBRiiZZuBACOXVopKsSc5QAAAABJRU5ErkJggg==;" parent="1" vertex="1"><mxGeometry x="64" y="200" width="64" height="40" as="geometry"/></mxCell><mxCell id="18" value="" style="shape=image;verticalLabelPosition=bottom;labelBackgroundColor=default;verticalAlign=top;imageAspect=0;image=data:image/png,iVBORw0KGgoAAAANSUhEUgAAAEAAAAAoCAYAAABOzvzpAAAAAXNSR0IArs4c6QAAASVJREFUaENjZBjhgHGE+59hNABGU8AID4HRLDDCE8BoITiaBUazwAgPgdEsMMITwGgtMJoFRrPACA+B0SwwwhPAaC0w6LOAsZHtf1AqPXvuME3cShNDqZWtYJ6vdlVnaN19ExwIMDF0Ozw888BCO7ZPYgCxQTQxgTaoA+BsZ83/tJUHGRIl+RjmP/8E9mBiQQNG+GbHOoHFpi7exwBig+j5ExqGTwDAUgAoZiXVhVACAJvnQQpGRADg8vywCQBYfkfOArC8DksJz2++A6cKEA0DxOZ/kPpBXQagBwC+QhA5XxBT+MHUD+oAADlyRFeD1KpO8Zkz6FMArQNhNABoHcKD3fzRFDDYY4jW7htNAbQO4cFu/mgKGOwxRGv3jaYAWofwYDcfAP84bSkTnWt5AAAAAElFTkSuQmCC;" parent="1" vertex="1"><mxGeometry x="64" y="240" width="64" height="40" as="geometry"/></mxCell><mxCell id="19" value="" style="shape=image;verticalLabelPosition=bottom;labelBackgroundColor=default;verticalAlign=top;imageAspect=0;image=data:image/png,iVBORw0KGgoAAAANSUhEUgAAAEAAAAAoCAYAAABOzvzpAAAAAXNSR0IArs4c6QAAAX5JREFUaENjZBjhgHGE+59hNABGU8AID4HRLDDCE8BoITiaBUazwAgPgdEsMMITwGgtMJoFRrPACA+B0SwwwhPAaC0wpLOAsZHtf1AKPnvuMNn+IFsjvbMOzLPo9la7qjO07r4JDgRcamB6PDzzwMwd2ycxgNggesgEwIWc5P98urwMoTPPMswKt2dQNFZkcC1bwJAoyccw//knsMcSCxpwxkt2rBNYburifQwgNoieP6Fh6AYAyDNpKw8ywFIALHYl1YUwAgGb50GKhlwAgBydfOwWigeRUwBIAhYQIDYoMGCer6lZA+Y/v/kOng1A2WbIZAFc+RsWALAyADklIMc8cqiBYh5WcA6ZAMCWuZFrARAb5vmWlhB4fkf3OHqtMaQDAOa56urV4OoQ5HFQ4YYL5MQ5Y/h3SAfAlEV7wR7HB7B5Gln9kAwAQh4n5OkhHwCEYp0U+SGZAkjxICG1owFAKISGu/xoChjuMUzIf6MpgFAIDXf50RQw3GOYkP8A9oh7DCee6a0AAAAASUVORK5CYII=;" parent="1" vertex="1"><mxGeometry x="64" y="280" width="64" height="40" as="geometry"/></mxCell><mxCell id="20" value="" style="shape=image;verticalLabelPosition=bottom;labelBackgroundColor=default;verticalAlign=top;imageAspect=0;image=data:image/png,iVBORw0KGgoAAAANSUhEUgAAAEAAAAAoCAYAAABOzvzpAAAAAXNSR0IArs4c6QAAAcdJREFUaEPtmLFKA0EURV8+wBR26wdoo412ggiKoB8QrBRDwMYgVjZp0mxjZaGFgkS0Ej8hKIhgF7GNP5DOwh9YuQtPxsnMzk5hMW9mmsCyCXvPvfe9JQ2K/DQi108JQEpA5ARSBSIPQBqCqQKpApETSBWIPACytsDF3VPR3d/0SrXXzSGkxReCSAAwqm4SxAGAeKSgLgTRAOpASABCGGy+z8gV4O9VzQPxCXDVIBgAK8trxej91fm8uvuuFDh/0Dd+/3X/R7dTdN4+yQVBNIDm0gy1rkaVEHq9xyJbmJ3ywTYHgkoAAOBUQbABsM2C4ABA/PDsgLZOb8sk6LNBLAAIvVmdJ8wBBgBX21mTBpPvEgbE45qpAsEnAAIA4Xp3vazB4cNLKX5uMaN8OP4FYBMvAgBDYOfxye4DzvbOsdV92zoMZgawAAhl53EN7uNAvBr/o70Nurx/dm6DoACweHZeFa53XyQAtQK8Adj5OgAm4y/K89Yf04NKgOkt09R9m/tRAIB4HFP/B+f9qbfI4BPAtWif9EkXrydBLAAVAtekjnjcKyIB6oq0vQuY3BcHgJOgQ7CJFwlAXZWcjKr/EERVwLQmXdd+AOtX5CnciBGZAAAAAElFTkSuQmCC;" parent="1" vertex="1"><mxGeometry x="64" y="320" width="64" height="40" as="geometry"/></mxCell><mxCell id="22" value="" style="shape=image;verticalLabelPosition=bottom;labelBackgroundColor=default;verticalAlign=top;imageAspect=0;image=data:image/png,iVBORw0KGgoAAAANSUhEUgAAAEAAAAAoCAYAAABOzvzpAAAAAXNSR0IArs4c6QAAAVxJREFUaENjZBjhgHGE+59hNABGU8AID4HRLDDCE8BoITiaBUazwAgPgdEsMMITwGgtMJoFRrPACA+B0SwwwhPAaC0wmgVGs8AAh4Cxke1/kBPOnjuMkhpxiVPbuVTLAiAHe3jmMezYPokBRIMAiE0IVLuqM7TuvomhbHW6MVgsdOZZjMAhZCYp8lQNgMSCBobsWCeGqYv3gWkQALGxgfkTGsDCiZJ8DPOff2KYFW7PoGisyOBatoAB5vkhGQAgRxMTCM9vvgOnEFgKwBYAny5/Zkg+dmtopACQx2HZAMSWVBdiAHkSRIMAiI0MYNkDOQWA5NNWHmSYa6UGVkprz4PsoFoWgHkOVngRyoegQg+kFhYAuNSjF46EzCVVnuoBQIoDkAOL1h7F5a4BDQBSAotWakcDgFYhO1TMHU0BQyWmaOXO0RRAq5AdKuaOpoChElO0cudoCqBVyA4VcwHP8m8pMPNaAwAAAABJRU5ErkJggg==;" parent="1" vertex="1"><mxGeometry y="360" width="64" height="40" as="geometry"/></mxCell><mxCell id="23" value="" style="shape=image;verticalLabelPosition=bottom;labelBackgroundColor=default;verticalAlign=top;imageAspect=0;image=data:image/png,iVBORw0KGgoAAAANSUhEUgAAAEAAAAAoCAYAAABOzvzpAAAAAXNSR0IArs4c6QAAAdVJREFUaEPtmLFKA0EQhicPYAq78wG00UY7QQRF0AcIVooSsDGIlU2aNNdYWWihIBGtxEcICiLYRWzjC6Sz8AUiszjH3rKbO2+v+ffumhCOhfu++Xd27hpU8atRcX4KUsDK8tpEL+zw483JGZwAht/eOaFoYTZx0L/okUtCUAJs8GLBJSEYAQx/eNpLqn68t0FXDy+ZKQhCgMAzNF8CnkcCvAAz9qYEvRnatkFwAhjYrLxIGI++KY5bKWY4AXLEcVeX6gug3vltEuAFqL0eNRVvf/yjfvnI0y+R4EpBZ38TPwEsYW4xUtzxYJQSEbQAfcLTk2BuB30rmKM+bAIE/mZ3XTEdPb6SJIFTwBK63Sc1Agcr4HZ1ntrvXzQ4P6CtszslgiVwP8gjwKw+r4c5BT477UlzaYZa18NEgERf5vysBAQhgKvGEmwvNyzgP/GHTUBZ8HACeP+7Xmsv759T3wCyur/ch+kBfAqUDQ+VALOi+v9p1bc1Pn0tTAJcAnzgg0iAS0BW5eF6gC0BvvDQCbDB5606fA8w4YuAw24BHd4HHFKAwJcBDilg2ixQ9B78HFAUvE7An4E6Ab4RQl9fJwC9gr7PXyfA1yD6+joB6BX0ff7KJ+AXaaLkKbP2DRQAAAAASUVORK5CYII=;" parent="1" vertex="1"><mxGeometry x="64" y="360" width="64" height="40" as="geometry"/></mxCell><mxCell id="24" value="" style="shape=image;verticalLabelPosition=bottom;labelBackgroundColor=default;verticalAlign=top;imageAspect=0;image=data:image/png,iVBORw0KGgoAAAANSUhEUgAAAEAAAAAoCAYAAABOzvzpAAAAAXNSR0IArs4c6QAAAF1JREFUaEPt1QERADAMArHi33SFfOagHBm7+Fv8/hOABsQTQCBeAJ8gAgjEE0AgXgArgAAC8QQQiBfACiCAQDwBBOIFsAIIIBBPAIF4AawAAgjEE0AgXgArgECdwANfiQApEtGAKwAAAABJRU5ErkJggg==;" parent="1" vertex="1"><mxGeometry y="400" width="64" height="40" as="geometry"/></mxCell><mxCell id="25" value="" style="shape=image;verticalLabelPosition=bottom;labelBackgroundColor=default;verticalAlign=top;imageAspect=0;image=data:image/png,iVBORw0KGgoAAAANSUhEUgAAAEAAAAAoCAYAAABOzvzpAAAAAXNSR0IArs4c6QAAAF1JREFUaEPt1QERADAMArHi33SFfOagHBm7+Fv8/hOABsQTQCBeAJ8gAgjEE0AgXgArgAAC8QQQiBfACiCAQDwBBOIFsAIIIBBPAIF4AawAAgjEE0AgXgArgECdwANfiQApEtGAKwAAAABJRU5ErkJggg==;" parent="1" vertex="1"><mxGeometry x="64" y="400" width="64" height="40" as="geometry"/></mxCell><mxCell id="26" value="" style="shape=image;verticalLabelPosition=bottom;labelBackgroundColor=default;verticalAlign=top;imageAspect=0;image=data:image/png,iVBORw0KGgoAAAANSUhEUgAAAEAAAAAoCAYAAABOzvzpAAAAAXNSR0IArs4c6QAAASBJREFUaENjZBjhgHGE+59hNABGU8AID4HRLDDCE8BoITiaBUazwAgPgdEsMMITwGgtMJoFRrPACA+B0SwwwhPAaC0wmgVGs8AID4EhkQWMjWz/g+Lp7LnDVHcv1Q2kdoKCeb7aVZ2hdfdNcCDAxLDZ5eGZBxbesX0SA4gNovEF3KAPgLOdNf/TVh5kSJTkY5j//BPYc4kFDVjDOTvWCSw+dfE+BhAbRM+f0DA8AgCWAkCxKqkuhBEA2DwPUjTkAwCW3JFTACyZw0IBFiDPb74DBw6IhmUDQuXGoM8C6AFAqAxAThqEPA9SO+gDAOTIEV0LULtWQTdvSKQAWgbCaADQMnSHgtmjKWAoxBIt3TiaAmgZukPB7NEUMBRiiZZuBACOXVopKsSc5QAAAABJRU5ErkJggg==;" parent="1" vertex="1"><mxGeometry x="128" y="40" width="64" height="40" as="geometry"/></mxCell><mxCell id="27" value="" style="shape=image;verticalLabelPosition=bottom;labelBackgroundColor=default;verticalAlign=top;imageAspect=0;image=data:image/png,iVBORw0KGgoAAAANSUhEUgAAAEAAAAAoCAYAAABOzvzpAAAAAXNSR0IArs4c6QAAAR1JREFUaENjZBjhgHGE+59hNABGU8AID4HRLDDCE8BoITiaBUazwAgPgdEsMMITwGgtMJoFRrPACA+B0SwwwhPAaC0wmgVGs8AID4HRLDAUEoCxke1/kDvPnjtM9QijuoHUDlCY56td1Rlad98EBwJMDJtdHp55YOEd2ycxgNggGl/ADfoAONtZ8z9t5UGGREk+hvnPP4E9l1jQgDWcs2OdwOJTF+9jALFB9PwJDcMjAGApABSrkupCGAGAzfMgRUM+AGDJHTkFwJI5LBRgAfL85jtw4IBoWDYgVG4M+iyAHgCEygDkpEHI8yC1gz4AQI4c0bUAtWsVdPOGRAqgZSCMBgAtQ3comD2aAoZCLNHSjaMpgJahOxTMHvEpAAAvF1opapJ9wAAAAABJRU5ErkJggg==;" parent="1" vertex="1"><mxGeometry x="192" y="40" width="64" height="40" as="geometry"/></mxCell><mxCell id="28" value="" style="shape=image;verticalLabelPosition=bottom;labelBackgroundColor=default;verticalAlign=top;imageAspect=0;image=data:image/png,iVBORw0KGgoAAAANSUhEUgAAAEAAAAAoCAYAAABOzvzpAAAAAXNSR0IArs4c6QAAASBJREFUaENjZBjhgHGE+59hNABGU8AID4HRLDDCE8BoITiaBUazwAgPgdEsMMITwGgtMJoFRrPACA+B0SwwwhPAaC0wmgVGs8AID4EhkQWMjWz/g+Lp7LnDVHcv1Q2kdoKCeb7aVZ2hdfdNcCDAxLDZ5eGZBxbesX0SA4gNovEF3KAPgLOdNf/TVh5kSJTkY5j//BPYc4kFDVjDOTvWCSw+dfE+BhAbRM+f0DA8AgCWAkCxKqkuhBEA2DwPUjTkAwCW3JFTACyZw0IBFiDPb74DBw6IhmUDQuXGoM8C6AFAqAxAThqEPA9SO+gDAOTIEV0LULtWQTdvSKQAWgbCaADQMnSHgtmjKWAoxBIt3TiaAmgZukPB7NEUMBRiiZZuBACOXVopKsSc5QAAAABJRU5ErkJggg==;" parent="1" vertex="1"><mxGeometry x="256" y="40" width="64" height="40" as="geometry"/></mxCell><mxCell id="29" value="" style="shape=image;verticalLabelPosition=bottom;labelBackgroundColor=default;verticalAlign=top;imageAspect=0;image=data:image/png,iVBORw0KGgoAAAANSUhEUgAAAEAAAAAoCAYAAABOzvzpAAAAAXNSR0IArs4c6QAAAF1JREFUaEPt1QERADAMArHi33SFfOagHBm7+Fv8/hOABsQTQCBeAJ8gAgjEE0AgXgArgAAC8QQQiBfACiCAQDwBBOIFsAIIIBBPAIF4AawAAgjEE0AgXgArgECdwANfiQApEtGAKwAAAABJRU5ErkJggg==;" parent="1" vertex="1"><mxGeometry x="320" y="40" width="64" height="40" as="geometry"/></mxCell><mxCell id="34" value="" style="shape=image;verticalLabelPosition=bottom;labelBackgroundColor=default;verticalAlign=top;imageAspect=0;image=data:image/png,iVBORw0KGgoAAAANSUhEUgAAAEAAAAAoCAYAAABOzvzpAAAAAXNSR0IArs4c6QAAASBJREFUaENjZBjhgHGE+59hNABGU8AID4HRLDDCE8BoITiaBUazwAgPgdEsMMITwGgtMJoFRrPACA+B0SwwwhPAaC0wmgVGs8AID4EhkQWMjWz/g+Lp7LnDVHcv1Q2kdoKCeb7aVZ2hdfdNcCDAxLDZ5eGZBxbesX0SA4gNovEF3KAPgLOdNf/TVh5kSJTkY5j//BPYc4kFDVjDOTvWCSw+dfE+BhAbRM+f0DA8AgCWAkCxKqkuhBEA2DwPUjTkAwCW3JFTACyZw0IBFiDPb74DBw6IhmUDQuXGoM8C6AFAqAxAThqEPA9SO+gDAOTIEV0LULtWQTdvSKQAWgbCaADQMnSHgtmjKWAoxBIt3TiaAmgZukPB7NEUMBRiiZZuBACOXVopKsSc5QAAAABJRU5ErkJggg==;" parent="1" vertex="1"><mxGeometry x="128" y="80" width="64" height="40" as="geometry"/></mxCell><mxCell id="35" value="" style="shape=image;verticalLabelPosition=bottom;labelBackgroundColor=default;verticalAlign=top;imageAspect=0;image=data:image/png,iVBORw0KGgoAAAANSUhEUgAAAEAAAAAoCAYAAABOzvzpAAAAAXNSR0IArs4c6QAAATJJREFUaENjZBjhgHGE+59hNABGU8AID4HRLDDCE8BoITiaBUazwAgPgdEsMMITwGgtMJoFRrPACA+BIZMFjI1s/4Pi6uy5w1R1M1UNo0VignkcZHa1qzpD6+6b4EBAFke318MzDyy0Y/skBhAbROMKuEEfAGc7a/4rGisyuJYtYEiU5GOY//wT2HOJBQ1Ywzs71gksPnXxPgYQG0TPn9AwtAMA5KG0lQfhKQAUq5LqQhgBgM3zIEVDOgCQkzpyCoAlc1gowALk+c134MAB0bBsgK/cGPRZAFsAECoDkJMGoUJz0AcAzDMjthagRc2CbOaQSQG0CojRAKBVyA4Vc0dTwFCJKVq5czQF0Cpkh4q5oylgqMQUrdw5mgJoFbJDxdzRFDBUYopW7hxNAbQK2aFiLgCN+FopmGXV6wAAAABJRU5ErkJggg==;" parent="1" vertex="1"><mxGeometry x="192" y="80" width="64" height="40" as="geometry"/></mxCell><mxCell id="36" value="" style="shape=image;verticalLabelPosition=bottom;labelBackgroundColor=default;verticalAlign=top;imageAspect=0;image=data:image/png,iVBORw0KGgoAAAANSUhEUgAAAEAAAAAoCAYAAABOzvzpAAAAAXNSR0IArs4c6QAAATBJREFUaENjZBjhgHGE+59hNABGU8AID4HRLDDCE8BoITiaBUazwAgPgdEsMMITwGgtMJoFRrPACA+B0SwwwhPA0KkFjI1s/4Mi6+y5w1RNtVQ1jBapCeZxkNnVruoMrbtvggMBWRzdXg/PPLDQju2TGEBsEI0r4AZ9AJztrPmvaKzI4Fq2gCFRko9h/vNPYM8lFjRgDe/sWCew+NTF+xhAbBA9f0LD0A4AkIfSVh6EpwBQrEqqC2EEADbPgxQN6QBATurIKQCWzGGhAAuQ5zffgQMHRMOyAb5yY9BnAWwBQKgMQE4ahArNQR8AMM+M2FqAFjULsplDJgXQKiBGA4BWITtUzB1NAUMlpmjlztEUQKuQHSrmjqaAoRJTtHLnaAqgVcgOFXNHU8BQiSlauRMAz11aKeFt2+UAAAAASUVORK5CYII=;" parent="1" vertex="1"><mxGeometry x="256" y="80" width="64" height="40" as="geometry"/></mxCell><mxCell id="37" value="" style="shape=image;verticalLabelPosition=bottom;labelBackgroundColor=default;verticalAlign=top;imageAspect=0;image=data:image/png,iVBORw0KGgoAAAANSUhEUgAAAEAAAAAoCAYAAABOzvzpAAAAAXNSR0IArs4c6QAAASBJREFUaENjZBjhgHGE+59hNABGU8AID4HRLDDCE8BoITiaBUazwAgPgdEsMMITwGgtMJoFRrPACA+B0SwwwhPAaC0wmgVGs8AQCAFjI9v/IGeePXeY6imW6gZSOzxhnq92VWdo3X0THAgwMWx2eXjmgYV3bJ/EAGKDaHwBN+gD4Gxnzf+0lQcZEiX5GOY//wT2XGJBA9Zwzo51AotPXbyPAcQG0fMnNAyPAIClAFCsSqoLYQQANs+DFA35AIAld+QUAEvmsFCABcjzm+/AgQOiYdmAULkx6LMAegAQKgOQkwYhz4PUDvoAADlyRNcC1K5V0M0bEimAloEwGgC0DN2hYPZoChgKsURLN46mAFqG7lAwezQFDIVYoqUbR3wKAADto1opuPzGaQAAAABJRU5ErkJggg==;" parent="1" vertex="1"><mxGeometry x="320" y="80" width="64" height="40" as="geometry"/></mxCell><mxCell id="42" value="" style="shape=image;verticalLabelPosition=bottom;labelBackgroundColor=default;verticalAlign=top;imageAspect=0;image=data:image/png,iVBORw0KGgoAAAANSUhEUgAAAEAAAAAoCAYAAABOzvzpAAAAAXNSR0IArs4c6QAAAVlJREFUaEPtmDELQVEUgI+/YGMzWUzMUkqxK5NBbCQTA4PBD5CyWCgjWZkMlAkZLPwAbzP4A0/n5ZZkPKfO7Z63vO107ne+c+89NwSOfyHH1w/iAaSSad8U6XTek+dLHpDaqG534Ufi4SDsdNgHagjiAaABx9MOxvMteLcnbNYjUgjiARgD6uUs9HpLNwEMBsXAAI42EG+AaQFcvJMGIIBKqw/YAmgB9UZohQEIwHxOA3DyFDAtgAYoABfvAWrAZxbIF5rklyBsKytOgd/5gnIeEA9g1an5j6sH0UQE8B/cBr0X2TwgHsD3OPxtApUFVgCYlDIQS8Ug156RVd7AFA/g0qgGDyLVw5188VZsggiAa/FWAMA9gKrf/71WiW8B6ie233gKgJuw9PhqgPQKceenBnATlh5fDZBeIe781ABuwtLjqwHSK8SdnxrATVh6fDVAeoW483PegDeryaQpul1hmwAAAABJRU5ErkJggg==;" parent="1" vertex="1"><mxGeometry x="128" y="120" width="64" height="40" as="geometry"/></mxCell><mxCell id="43" value="" style="shape=image;verticalLabelPosition=bottom;labelBackgroundColor=default;verticalAlign=top;imageAspect=0;image=data:image/png,iVBORw0KGgoAAAANSUhEUgAAAEAAAAAoCAYAAABOzvzpAAAAAXNSR0IArs4c6QAAAF1JREFUaEPt1QERADAMArHi33SFfOagHBm7+Fv8/hOABsQTQCBeAJ8gAgjEE0AgXgArgAAC8QQQiBfACiCAQDwBBOIFsAIIIBBPAIF4AawAAgjEE0AgXgArgECdwANfiQApEtGAKwAAAABJRU5ErkJggg==;" parent="1" vertex="1"><mxGeometry x="192" y="120" width="64" height="40" as="geometry"/></mxCell><mxCell id="44" value="" style="shape=image;verticalLabelPosition=bottom;labelBackgroundColor=default;verticalAlign=top;imageAspect=0;image=data:image/png,iVBORw0KGgoAAAANSUhEUgAAAEAAAAAoCAYAAABOzvzpAAAAAXNSR0IArs4c6QAAAF1JREFUaEPt1QERADAMArHi33SFfOagHBm7+Fv8/hOABsQTQCBeAJ8gAgjEE0AgXgArgAAC8QQQiBfACiCAQDwBBOIFsAIIIBBPAIF4AawAAgjEE0AgXgArgECdwANfiQApEtGAKwAAAABJRU5ErkJggg==;" parent="1" vertex="1"><mxGeometry x="256" y="120" width="64" height="40" as="geometry"/></mxCell><mxCell id="45" value="" style="shape=image;verticalLabelPosition=bottom;labelBackgroundColor=default;verticalAlign=top;imageAspect=0;image=data:image/png,iVBORw0KGgoAAAANSUhEUgAAAEAAAAAoCAYAAABOzvzpAAAAAXNSR0IArs4c6QAAAF1JREFUaEPt1QERADAMArHi33SFfOagHBm7+Fv8/hOABsQTQCBeAJ8gAgjEE0AgXgArgAAC8QQQiBfACiCAQDwBBOIFsAIIIBBPAIF4AawAAgjEE0AgXgArgECdwANfiQApEtGAKwAAAABJRU5ErkJggg==;" parent="1" vertex="1"><mxGeometry x="320" y="120" width="64" height="40" as="geometry"/></mxCell><mxCell id="50" value="" style="shape=image;verticalLabelPosition=bottom;labelBackgroundColor=default;verticalAlign=top;imageAspect=0;image=data:image/png,iVBORw0KGgoAAAANSUhEUgAAAEAAAAAoCAYAAABOzvzpAAAAAXNSR0IArs4c6QAAAF1JREFUaEPt1QERADAMArHi33SFfOagHBm7+Fv8/hOABsQTQCBeAJ8gAgjEE0AgXgArgAAC8QQQiBfACiCAQDwBBOIFsAIIIBBPAIF4AawAAgjEE0AgXgArgECdwANfiQApEtGAKwAAAABJRU5ErkJggg==;" parent="1" vertex="1"><mxGeometry x="128" y="160" width="64" height="40" as="geometry"/></mxCell><mxCell id="51" value="" style="shape=image;verticalLabelPosition=bottom;labelBackgroundColor=default;verticalAlign=top;imageAspect=0;image=data:image/png,iVBORw0KGgoAAAANSUhEUgAAAEAAAAAoCAYAAABOzvzpAAAAAXNSR0IArs4c6QAAAF1JREFUaEPt1QERADAMArHi33SFfOagHBm7+Fv8/hOABsQTQCBeAJ8gAgjEE0AgXgArgAAC8QQQiBfACiCAQDwBBOIFsAIIIBBPAIF4AawAAgjEE0AgXgArgECdwANfiQApEtGAKwAAAABJRU5ErkJggg==;" parent="1" vertex="1"><mxGeometry x="192" y="160" width="64" height="40" as="geometry"/></mxCell><mxCell id="52" value="" style="shape=image;verticalLabelPosition=bottom;labelBackgroundColor=default;verticalAlign=top;imageAspect=0;image=data:image/png,iVBORw0KGgoAAAANSUhEUgAAAEAAAAAoCAYAAABOzvzpAAAAAXNSR0IArs4c6QAAAF1JREFUaEPt1QERADAMArHi33SFfOagHBm7+Fv8/hOABsQTQCBeAJ8gAgjEE0AgXgArgAAC8QQQiBfACiCAQDwBBOIFsAIIIBBPAIF4AawAAgjEE0AgXgArgECdwANfiQApEtGAKwAAAABJRU5ErkJggg==;" parent="1" vertex="1"><mxGeometry x="256" y="160" width="64" height="40" as="geometry"/></mxCell><mxCell id="58" value="" style="shape=image;verticalLabelPosition=bottom;labelBackgroundColor=default;verticalAlign=top;imageAspect=0;image=data:image/png,iVBORw0KGgoAAAANSUhEUgAAAEAAAAAoCAYAAABOzvzpAAAAAXNSR0IArs4c6QAAAF1JREFUaEPt1QERADAMArHi33SFfOagHBm7+Fv8/hOABsQTQCBeAJ8gAgjEE0AgXgArgAAC8QQQiBfACiCAQDwBBOIFsAIIIBBPAIF4AawAAgjEE0AgXgArgECdwANfiQApEtGAKwAAAABJRU5ErkJggg==;" parent="1" vertex="1"><mxGeometry x="128" y="200" width="64" height="40" as="geometry"/></mxCell><mxCell id="59" value="" style="shape=image;verticalLabelPosition=bottom;labelBackgroundColor=default;verticalAlign=top;imageAspect=0;image=data:image/png,iVBORw0KGgoAAAANSUhEUgAAAEAAAAAoCAYAAABOzvzpAAAAAXNSR0IArs4c6QAAAF1JREFUaEPt1QERADAMArHi33SFfOagHBm7+Fv8/hOABsQTQCBeAJ8gAgjEE0AgXgArgAAC8QQQiBfACiCAQDwBBOIFsAIIIBBPAIF4AawAAgjEE0AgXgArgECdwANfiQApEtGAKwAAAABJRU5ErkJggg==;" parent="1" vertex="1"><mxGeometry x="192" y="200" width="64" height="40" as="geometry"/></mxCell><mxCell id="60" value="" style="shape=image;verticalLabelPosition=bottom;labelBackgroundColor=default;verticalAlign=top;imageAspect=0;image=data:image/png,iVBORw0KGgoAAAANSUhEUgAAAEAAAAAoCAYAAABOzvzpAAAAAXNSR0IArs4c6QAAAF1JREFUaEPt1QERADAMArHi33SFfOagHBm7+Fv8/hOABsQTQCBeAJ8gAgjEE0AgXgArgAAC8QQQiBfACiCAQDwBBOIFsAIIIBBPAIF4AawAAgjEE0AgXgArgECdwANfiQApEtGAKwAAAABJRU5ErkJggg==;" parent="1" vertex="1"><mxGeometry x="256" y="200" width="64" height="40" as="geometry"/></mxCell><mxCell id="66" value="" style="shape=image;verticalLabelPosition=bottom;labelBackgroundColor=default;verticalAlign=top;imageAspect=0;image=data:image/png,iVBORw0KGgoAAAANSUhEUgAAAEAAAAAoCAYAAABOzvzpAAAAAXNSR0IArs4c6QAAAR5JREFUaENjZBjhgHGE+59hNABGU8AID4HRLDDCE8BoITiaBUazwAgPgdEsMMITwGgtMJoFRrPACA+B0SwwwhPAaC0wZLKAsZHtf1BqPXvuMFXdTFXDaJWdYJ6vdlVnaN19ExwIMDFsdnp45oGFd2yfxABig2hcATckAuBsZ83/tJUHGRIl+RjmP/8E9lxiQQPW8M6OdQKLT128jwHEBtHzJzQMjwCApQBQrEqqC2EEADbPgxQN+QCAJXfkFABL5rBQgAXI85vvwIEDomHZAF+5MSSyAHoAECoDkJMGoUJzSAXAiK0FaFW7gMwdEilgNABoGAKjKYCGgTskjB5NAUMimmjoyNEUQMPAHRJGj6aAIRFNNHTkaAqgYeAOCaMBSrNaKQH8cFkAAAAASUVORK5CYII=;" parent="1" vertex="1"><mxGeometry x="128" y="240" width="64" height="40" as="geometry"/></mxCell><mxCell id="67" value="" style="shape=image;verticalLabelPosition=bottom;labelBackgroundColor=default;verticalAlign=top;imageAspect=0;image=data:image/png,iVBORw0KGgoAAAANSUhEUgAAAEAAAAAoCAYAAABOzvzpAAAAAXNSR0IArs4c6QAAASNJREFUaENjZBjhgHGE+59hNABGU8AID4HRLDDCE8BoITiaBUazwAgPgdEsMMITwGgtMJoFRrPACA+B0SwwwhPAaC0wJLKAsZHtf1BKPXvuMNXdS3UDqZ2lYJ6vdlVnaN19ExwIMDFsdnl45oGFd2yfxABig2h8ATfoA+BsZ83/tJUHGRIl+RjmP/8E9lxiQQPWcM6OdQKLT128jwHEBtHzJzQMjwCApQBQrEqqC2EEADbPgxQN+QCAJXfkFABL5rBQgAXI85vvwIEDomHZgFC5MeizAHoAECoDkJMGIc+D1A76AAA5ckTXAtSuVdDNGxIpgJaBMBoAtAzdoWD2aAoYCrFESzeOpgBahu5QMHs0BQyFWKKlG0dTAC1DdyiYPeJTAACsPloplqxlpwAAAABJRU5ErkJggg==;" parent="1" vertex="1"><mxGeometry x="192" y="240" width="64" height="40" as="geometry"/></mxCell><mxCell id="68" value="" style="shape=image;verticalLabelPosition=bottom;labelBackgroundColor=default;verticalAlign=top;imageAspect=0;image=data:image/png,iVBORw0KGgoAAAANSUhEUgAAAEAAAAAoCAYAAABOzvzpAAAAAXNSR0IArs4c6QAAAF1JREFUaEPt1QERADAMArHi33SFfOagHBm7+Fv8/hOABsQTQCBeAJ8gAgjEE0AgXgArgAAC8QQQiBfACiCAQDwBBOIFsAIIIBBPAIF4AawAAgjEE0AgXgArgECdwANfiQApEtGAKwAAAABJRU5ErkJggg==;" parent="1" vertex="1"><mxGeometry x="256" y="240" width="64" height="40" as="geometry"/></mxCell><mxCell id="74" value="" style="shape=image;verticalLabelPosition=bottom;labelBackgroundColor=default;verticalAlign=top;imageAspect=0;image=data:image/png,iVBORw0KGgoAAAANSUhEUgAAAEAAAAAoCAYAAABOzvzpAAAAAXNSR0IArs4c6QAAATNJREFUaENjZBjhgHGE+59hNABGU8AID4HRLDDCE8BoITiaBUazwAgPgdEsMMITwGgtMJoFRrPACA+B0SwwwhPAaC0wmgWGWhYwNrL9D3Lz2XOHqRJ5VDGE1oEI8zTMnmpXdYbW3TfBgYAuh+wWD888MHfH9kkMIDaIRg+4IREAF3KS/ycfu8WwuyuBwbVsAUOiJB/D/OefwJ5LLGjAGv7ZsU5g8amL9zGA2CB6/oSGoR0As8LtGdJWHmSApQBQrEqqC2EEADbPgxQN+QCA+RQ5BcCSOUwOFiDPb74DBw6IhmUDbOXGkMgC6PkcFgCEygDkpIGr0BwSAYDskRFZC9CylhlyKYDagTEaANQO0aFm3mgKGGoxRm33jqYAaofoUDNvNAUMtRijtntHUwC1Q3SomQcAAbljKbgWlMYAAAAASUVORK5CYII=;" parent="1" vertex="1"><mxGeometry x="128" y="280" width="64" height="40" as="geometry"/></mxCell><mxCell id="75" value="" style="shape=image;verticalLabelPosition=bottom;labelBackgroundColor=default;verticalAlign=top;imageAspect=0;image=data:image/png,iVBORw0KGgoAAAANSUhEUgAAAEAAAAAoCAYAAABOzvzpAAAAAXNSR0IArs4c6QAAAF1JREFUaEPt1QERADAMArHi33SFfOagHBm7+Fv8/hOABsQTQCBeAJ8gAgjEE0AgXgArgAAC8QQQiBfACiCAQDwBBOIFsAIIIBBPAIF4AawAAgjEE0AgXgArgECdwANfiQApEtGAKwAAAABJRU5ErkJggg==;" parent="1" vertex="1"><mxGeometry x="192" y="280" width="64" height="40" as="geometry"/></mxCell><mxCell id="76" value="" style="shape=image;verticalLabelPosition=bottom;labelBackgroundColor=default;verticalAlign=top;imageAspect=0;image=data:image/png,iVBORw0KGgoAAAANSUhEUgAAAEAAAAAoCAYAAABOzvzpAAAAAXNSR0IArs4c6QAAAF1JREFUaEPt1QERADAMArHi33SFfOagHBm7+Fv8/hOABsQTQCBeAJ8gAgjEE0AgXgArgAAC8QQQiBfACiCAQDwBBOIFsAIIIBBPAIF4AawAAgjEE0AgXgArgECdwANfiQApEtGAKwAAAABJRU5ErkJggg==;" parent="1" vertex="1"><mxGeometry x="256" y="280" width="64" height="40" as="geometry"/></mxCell><mxCell id="82" value="" style="shape=image;verticalLabelPosition=bottom;labelBackgroundColor=default;verticalAlign=top;imageAspect=0;image=data:image/png,iVBORw0KGgoAAAANSUhEUgAAAEAAAAAoCAYAAABOzvzpAAAAAXNSR0IArs4c6QAAAR5JREFUaENjZBjhgHGE+59hNABGU8AID4HRLDDCE8BoITiaBUazwAgPgdEsMMITwGgtMJoFRrPACA+B0SwwwhPAaC0wmgVGs8AID4EhkwWMjWz/g+Lq7LnDVHUzVQ2jVWKCeb7aVZ2hdfdNcCDAxLDZ6eGZBxbesX0SA4gNonEF3JAIgLOdNf/TVh5kSJTkY5j//BPYc4kFDVjDOzvWCSw+dfE+BhAbRM+f0DA8AgCWAkCxKqkuhBEA2DwPUjTkAwCW3JFTACyZw0IBFiDPb74DBw6IhmUDfOXGkMgC6AFAqAxAThqECs0hEQAgD43oWoBWtQvI3CGTAmgVCKMBQKuQHSrmjqaAoRJTtHLnaAqgVcgOFXNHU8BQiSlauRMAJk5aKZ6xldQAAAAASUVORK5CYII=;" parent="1" vertex="1"><mxGeometry x="128" y="320" width="64" height="40" as="geometry"/></mxCell><mxCell id="83" value="" style="shape=image;verticalLabelPosition=bottom;labelBackgroundColor=default;verticalAlign=top;imageAspect=0;image=data:image/png,iVBORw0KGgoAAAANSUhEUgAAAEAAAAAoCAYAAABOzvzpAAAAAXNSR0IArs4c6QAAAF1JREFUaEPt1QERADAMArHi33SFfOagHBm7+Fv8/hOABsQTQCBeAJ8gAgjEE0AgXgArgAAC8QQQiBfACiCAQDwBBOIFsAIIIBBPAIF4AawAAgjEE0AgXgArgECdwANfiQApEtGAKwAAAABJRU5ErkJggg==;" parent="1" vertex="1"><mxGeometry x="192" y="320" width="64" height="40" as="geometry"/></mxCell><mxCell id="84" value="" style="shape=image;verticalLabelPosition=bottom;labelBackgroundColor=default;verticalAlign=top;imageAspect=0;image=data:image/png,iVBORw0KGgoAAAANSUhEUgAAAEAAAAAoCAYAAABOzvzpAAAAAXNSR0IArs4c6QAAAF1JREFUaEPt1QERADAMArHi33SFfOagHBm7+Fv8/hOABsQTQCBeAJ8gAgjEE0AgXgArgAAC8QQQiBfACiCAQDwBBOIFsAIIIBBPAIF4AawAAgjEE0AgXgArgECdwANfiQApEtGAKwAAAABJRU5ErkJggg==;" parent="1" vertex="1"><mxGeometry x="256" y="320" width="64" height="40" as="geometry"/></mxCell><mxCell id="90" value="" style="shape=image;verticalLabelPosition=bottom;labelBackgroundColor=default;verticalAlign=top;imageAspect=0;image=data:image/png,iVBORw0KGgoAAAANSUhEUgAAAEAAAAAoCAYAAABOzvzpAAAAAXNSR0IArs4c6QAAASZJREFUaENjZBjhgHGE+59hNABGU8AID4HRLDDCE8BoITiaBUazwAgPgdEsMMITwGgtMJoFRrPAEAkBYyPb/yCnnj13mKqplqqG0SosYZ6vdlVnaN19ExwIMDFsdnp45oGFd2yfxABig2hcATckAuBsZ83/tJUHGRIl+RjmP/8E9lxiQQPW8M6OdQKLT128jwHEBtHzJzQMjwCApQBQrEqqC2EEADbPgxQN+QCAJXfkFABL5rBQgAXI85vvwIEDomHZAF+5MSSyAHoAECoDkJMGoUJzSAQAyEMjuhagVe0CMnfIpABaBcJoANAqZIeKuaMpYKjEFK3cOZoCaBWyQ8Xc0RQwVGKKVu4cTQG0CtmhYu5oChgqMUUrd46mAFqF7FAxd8SnAADBVlop463OnQAAAABJRU5ErkJggg==;" parent="1" vertex="1"><mxGeometry x="128" y="360" width="64" height="40" as="geometry"/></mxCell><mxCell id="91" value="" style="shape=image;verticalLabelPosition=bottom;labelBackgroundColor=default;verticalAlign=top;imageAspect=0;image=data:image/png,iVBORw0KGgoAAAANSUhEUgAAAEAAAAAoCAYAAABOzvzpAAAAAXNSR0IArs4c6QAAAF1JREFUaEPt1QERADAMArHi33SFfOagHBm7+Fv8/hOABsQTQCBeAJ8gAgjEE0AgXgArgAAC8QQQiBfACiCAQDwBBOIFsAIIIBBPAIF4AawAAgjEE0AgXgArgECdwANfiQApEtGAKwAAAABJRU5ErkJggg==;" parent="1" vertex="1"><mxGeometry x="192" y="360" width="64" height="40" as="geometry"/></mxCell><mxCell id="92" value="" style="shape=image;verticalLabelPosition=bottom;labelBackgroundColor=default;verticalAlign=top;imageAspect=0;image=data:image/png,iVBORw0KGgoAAAANSUhEUgAAAEAAAAAoCAYAAABOzvzpAAAAAXNSR0IArs4c6QAAAF1JREFUaEPt1QERADAMArHi33SFfOagHBm7+Fv8/hOABsQTQCBeAJ8gAgjEE0AgXgArgAAC8QQQiBfACiCAQDwBBOIFsAIIIBBPAIF4AawAAgjEE0AgXgArgECdwANfiQApEtGAKwAAAABJRU5ErkJggg==;" parent="1" vertex="1"><mxGeometry x="256" y="360" width="64" height="40" as="geometry"/></mxCell><mxCell id="98" value="" style="shape=image;verticalLabelPosition=bottom;labelBackgroundColor=default;verticalAlign=top;imageAspect=0;image=data:image/png,iVBORw0KGgoAAAANSUhEUgAAAEAAAAAoCAYAAABOzvzpAAAAAXNSR0IArs4c6QAAAF1JREFUaEPt1QERADAMArHi33SFfOagHBm7+Fv8/hOABsQTQCBeAJ8gAgjEE0AgXgArgAAC8QQQiBfACiCAQDwBBOIFsAIIIBBPAIF4AawAAgjEE0AgXgArgECdwANfiQApEtGAKwAAAABJRU5ErkJggg==;" parent="1" vertex="1"><mxGeometry x="128" y="400" width="64" height="40" as="geometry"/></mxCell><mxCell id="99" value="" style="shape=image;verticalLabelPosition=bottom;labelBackgroundColor=default;verticalAlign=top;imageAspect=0;image=data:image/png,iVBORw0KGgoAAAANSUhEUgAAAEAAAAAoCAYAAABOzvzpAAAAAXNSR0IArs4c6QAAAF1JREFUaEPt1QERADAMArHi33SFfOagHBm7+Fv8/hOABsQTQCBeAJ8gAgjEE0AgXgArgAAC8QQQiBfACiCAQDwBBOIFsAIIIBBPAIF4AawAAgjEE0AgXgArgECdwANfiQApEtGAKwAAAABJRU5ErkJggg==;" parent="1" vertex="1"><mxGeometry x="192" y="400" width="64" height="40" as="geometry"/></mxCell><mxCell id="100" value="" style="shape=image;verticalLabelPosition=bottom;labelBackgroundColor=default;verticalAlign=top;imageAspect=0;image=data:image/png,iVBORw0KGgoAAAANSUhEUgAAAEAAAAAoCAYAAABOzvzpAAAAAXNSR0IArs4c6QAAAF1JREFUaEPt1QERADAMArHi33SFfOagHBm7+Fv8/hOABsQTQCBeAJ8gAgjEE0AgXgArgAAC8QQQiBfACiCAQDwBBOIFsAIIIBBPAIF4AawAAgjEE0AgXgArgECdwANfiQApEtGAKwAAAABJRU5ErkJggg==;" parent="1" vertex="1"><mxGeometry x="256" y="400" width="64" height="40" as="geometry"/></mxCell><mxCell id="106" value="" style="shape=image;verticalLabelPosition=bottom;labelBackgroundColor=default;verticalAlign=top;imageAspect=0;image=data:image/png,iVBORw0KGgoAAAANSUhEUgAAAEAAAAAoCAYAAABOzvzpAAAAAXNSR0IArs4c6QAAAF1JREFUaEPt1QERADAMArHi33SFfOagHBm7+Fv8/hOABsQTQCBeAJ8gAgjEE0AgXgArgAAC8QQQiBfACiCAQDwBBOIFsAIIIBBPAIF4AawAAgjEE0AgXgArgECdwANfiQApEtGAKwAAAABJRU5ErkJggg==;" parent="1" vertex="1"><mxGeometry x="320" y="160" width="64" height="40" as="geometry"/></mxCell><mxCell id="107" value="" style="shape=image;verticalLabelPosition=bottom;labelBackgroundColor=default;verticalAlign=top;imageAspect=0;image=data:image/png,iVBORw0KGgoAAAANSUhEUgAAAEAAAAAoCAYAAABOzvzpAAAAAXNSR0IArs4c6QAAAF1JREFUaEPt1QERADAMArHi33SFfOagHBm7+Fv8/hOABsQTQCBeAJ8gAgjEE0AgXgArgAAC8QQQiBfACiCAQDwBBOIFsAIIIBBPAIF4AawAAgjEE0AgXgArgECdwANfiQApEtGAKwAAAABJRU5ErkJggg==;" parent="1" vertex="1"><mxGeometry x="320" y="200" width="64" height="40" as="geometry"/></mxCell><mxCell id="108" value="" style="shape=image;verticalLabelPosition=bottom;labelBackgroundColor=default;verticalAlign=top;imageAspect=0;image=data:image/png,iVBORw0KGgoAAAANSUhEUgAAAEAAAAAoCAYAAABOzvzpAAAAAXNSR0IArs4c6QAAAF1JREFUaEPt1QERADAMArHi33SFfOagHBm7+Fv8/hOABsQTQCBeAJ8gAgjEE0AgXgArgAAC8QQQiBfACiCAQDwBBOIFsAIIIBBPAIF4AawAAgjEE0AgXgArgECdwANfiQApEtGAKwAAAABJRU5ErkJggg==;" parent="1" vertex="1"><mxGeometry x="320" y="240" width="64" height="40" as="geometry"/></mxCell><mxCell id="109" value="" style="shape=image;verticalLabelPosition=bottom;labelBackgroundColor=default;verticalAlign=top;imageAspect=0;image=data:image/png,iVBORw0KGgoAAAANSUhEUgAAAEAAAAAoCAYAAABOzvzpAAAAAXNSR0IArs4c6QAAAF1JREFUaEPt1QERADAMArHi33SFfOagHBm7+Fv8/hOABsQTQCBeAJ8gAgjEE0AgXgArgAAC8QQQiBfACiCAQDwBBOIFsAIIIBBPAIF4AawAAgjEE0AgXgArgECdwANfiQApEtGAKwAAAABJRU5ErkJggg==;" parent="1" vertex="1"><mxGeometry x="320" y="280" width="64" height="40" as="geometry"/></mxCell><mxCell id="110" value="" style="shape=image;verticalLabelPosition=bottom;labelBackgroundColor=default;verticalAlign=top;imageAspect=0;image=data:image/png,iVBORw0KGgoAAAANSUhEUgAAAEAAAAAoCAYAAABOzvzpAAAAAXNSR0IArs4c6QAAAF1JREFUaEPt1QERADAMArHi33SFfOagHBm7+Fv8/hOABsQTQCBeAJ8gAgjEE0AgXgArgAAC8QQQiBfACiCAQDwBBOIFsAIIIBBPAIF4AawAAgjEE0AgXgArgECdwANfiQApEtGAKwAAAABJRU5ErkJggg==;" parent="1" vertex="1"><mxGeometry x="320" y="320" width="64" height="40" as="geometry"/></mxCell><mxCell id="111" value="" style="shape=image;verticalLabelPosition=bottom;labelBackgroundColor=default;verticalAlign=top;imageAspect=0;image=data:image/png,iVBORw0KGgoAAAANSUhEUgAAAEAAAAAoCAYAAABOzvzpAAAAAXNSR0IArs4c6QAAAF1JREFUaEPt1QERADAMArHi33SFfOagHBm7+Fv8/hOABsQTQCBeAJ8gAgjEE0AgXgArgAAC8QQQiBfACiCAQDwBBOIFsAIIIBBPAIF4AawAAgjEE0AgXgArgECdwANfiQApEtGAKwAAAABJRU5ErkJggg==;" parent="1" vertex="1"><mxGeometry x="320" y="360" width="64" height="40" as="geometry"/></mxCell><mxCell id="119" value="" style="shape=image;verticalLabelPosition=bottom;labelBackgroundColor=default;verticalAlign=top;imageAspect=0;image=data:image/png,iVBORw0KGgoAAAANSUhEUgAAAEAAAAAoCAYAAABOzvzpAAAAAXNSR0IArs4c6QAAAF1JREFUaEPt1QERADAMArHi33SFfOagHBm7+Fv8/hOABsQTQCBeAJ8gAgjEE0AgXgArgAAC8QQQiBfACiCAQDwBBOIFsAIIIBBPAIF4AawAAgjEE0AgXgArgECdwANfiQApEtGAKwAAAABJRU5ErkJggg==;" parent="1" vertex="1"><mxGeometry x="384" y="320" width="64" height="40" as="geometry"/></mxCell><mxCell id="120" value="" style="shape=image;verticalLabelPosition=bottom;labelBackgroundColor=default;verticalAlign=top;imageAspect=0;image=data:image/png,iVBORw0KGgoAAAANSUhEUgAAAEAAAAAoCAYAAABOzvzpAAAAAXNSR0IArs4c6QAAAF1JREFUaEPt1QERADAMArHi33SFfOagHBm7+Fv8/hOABsQTQCBeAJ8gAgjEE0AgXgArgAAC8QQQiBfACiCAQDwBBOIFsAIIIBBPAIF4AawAAgjEE0AgXgArgECdwANfiQApEtGAKwAAAABJRU5ErkJggg==;" parent="1" vertex="1"><mxGeometry x="384" y="360" width="64" height="40" as="geometry"/></mxCell><mxCell id="121" value="" style="shape=image;verticalLabelPosition=bottom;labelBackgroundColor=default;verticalAlign=top;imageAspect=0;image=data:image/png,iVBORw0KGgoAAAANSUhEUgAAAEAAAAAoCAYAAABOzvzpAAAAAXNSR0IArs4c6QAAAF1JREFUaEPt1QERADAMArHi33SFfOagHBm7+Fv8/hOABsQTQCBeAJ8gAgjEE0AgXgArgAAC8QQQiBfACiCAQDwBBOIFsAIIIBBPAIF4AawAAgjEE0AgXgArgECdwANfiQApEtGAKwAAAABJRU5ErkJggg==;" parent="1" vertex="1"><mxGeometry x="320" y="400" width="64" height="40" as="geometry"/></mxCell><mxCell id="123" value="" style="shape=image;verticalLabelPosition=bottom;labelBackgroundColor=default;verticalAlign=top;imageAspect=0;image=data:image/png,iVBORw0KGgoAAAANSUhEUgAAAEAAAAAoCAYAAABOzvzpAAAAAXNSR0IArs4c6QAAAF1JREFUaEPt1QERADAMArHi33SFfOagHBm7+Fv8/hOABsQTQCBeAJ8gAgjEE0AgXgArgAAC8QQQiBfACiCAQDwBBOIFsAIIIBBPAIF4AawAAgjEE0AgXgArgECdwANfiQApEtGAKwAAAABJRU5ErkJggg==;" parent="1" vertex="1"><mxGeometry x="384" y="400" width="64" height="40" as="geometry"/></mxCell><mxCell id="126" value="" style="shape=image;verticalLabelPosition=bottom;labelBackgroundColor=default;verticalAlign=top;imageAspect=0;image=data:image/png,iVBORw0KGgoAAAANSUhEUgAAAEAAAAAoCAYAAABOzvzpAAAAAXNSR0IArs4c6QAAAF1JREFUaEPt1QERADAMArHi33SFfOagHBm7+Fv8/hOABsQTQCBeAJ8gAgjEE0AgXgArgAAC8QQQiBfACiCAQDwBBOIFsAIIIBBPAIF4AawAAgjEE0AgXgArgECdwANfiQApEtGAKwAAAABJRU5ErkJggg==;" parent="1" vertex="1"><mxGeometry x="384" y="280" width="64" height="40" as="geometry"/></mxCell><mxCell id="127" value="" style="shape=image;verticalLabelPosition=bottom;labelBackgroundColor=default;verticalAlign=top;imageAspect=0;image=data:image/png,iVBORw0KGgoAAAANSUhEUgAAAEAAAAAoCAYAAABOzvzpAAAAAXNSR0IArs4c6QAAAF1JREFUaEPt1QERADAMArHi33SFfOagHBm7+Fv8/hOABsQTQCBeAJ8gAgjEE0AgXgArgAAC8QQQiBfACiCAQDwBBOIFsAIIIBBPAIF4AawAAgjEE0AgXgArgECdwANfiQApEtGAKwAAAABJRU5ErkJggg==;" parent="1" vertex="1"><mxGeometry x="384" y="240" width="64" height="40" as="geometry"/></mxCell><mxCell id="128" value="" style="shape=image;verticalLabelPosition=bottom;labelBackgroundColor=default;verticalAlign=top;imageAspect=0;image=data:image/png,iVBORw0KGgoAAAANSUhEUgAAAEAAAAAoCAYAAABOzvzpAAAAAXNSR0IArs4c6QAAAF1JREFUaEPt1QERADAMArHi33SFfOagHBm7+Fv8/hOABsQTQCBeAJ8gAgjEE0AgXgArgAAC8QQQiBfACiCAQDwBBOIFsAIIIBBPAIF4AawAAgjEE0AgXgArgECdwANfiQApEtGAKwAAAABJRU5ErkJggg==;" parent="1" vertex="1"><mxGeometry x="384" y="160" width="64" height="40" as="geometry"/></mxCell><mxCell id="129" value="" style="shape=image;verticalLabelPosition=bottom;labelBackgroundColor=default;verticalAlign=top;imageAspect=0;image=data:image/png,iVBORw0KGgoAAAANSUhEUgAAAEAAAAAoCAYAAABOzvzpAAAAAXNSR0IArs4c6QAAAF1JREFUaEPt1QERADAMArHi33SFfOagHBm7+Fv8/hOABsQTQCBeAJ8gAgjEE0AgXgArgAAC8QQQiBfACiCAQDwBBOIFsAIIIBBPAIF4AawAAgjEE0AgXgArgECdwANfiQApEtGAKwAAAABJRU5ErkJggg==;" parent="1" vertex="1"><mxGeometry x="384" y="200" width="64" height="40" as="geometry"/></mxCell><mxCell id="130" value="" style="shape=image;verticalLabelPosition=bottom;labelBackgroundColor=default;verticalAlign=top;imageAspect=0;image=data:image/png,iVBORw0KGgoAAAANSUhEUgAAAEAAAAAoCAYAAABOzvzpAAAAAXNSR0IArs4c6QAAAF1JREFUaEPt1QERADAMArHi33SFfOagHBm7+Fv8/hOABsQTQCBeAJ8gAgjEE0AgXgArgAAC8QQQiBfACiCAQDwBBOIFsAIIIBBPAIF4AawAAgjEE0AgXgArgECdwANfiQApEtGAKwAAAABJRU5ErkJggg==;" parent="1" vertex="1"><mxGeometry x="384" y="120" width="64" height="40" as="geometry"/></mxCell><mxCell id="131" value="" style="shape=image;verticalLabelPosition=bottom;labelBackgroundColor=default;verticalAlign=top;imageAspect=0;image=data:image/png,iVBORw0KGgoAAAANSUhEUgAAAEAAAAAoCAYAAABOzvzpAAAAAXNSR0IArs4c6QAAAF1JREFUaEPt1QERADAMArHi33SFfOagHBm7+Fv8/hOABsQTQCBeAJ8gAgjEE0AgXgArgAAC8QQQiBfACiCAQDwBBOIFsAIIIBBPAIF4AawAAgjEE0AgXgArgECdwANfiQApEtGAKwAAAABJRU5ErkJggg==;" parent="1" vertex="1"><mxGeometry x="384" y="40" width="64" height="40" as="geometry"/></mxCell><mxCell id="132" value="" style="shape=image;verticalLabelPosition=bottom;labelBackgroundColor=default;verticalAlign=top;imageAspect=0;image=data:image/png,iVBORw0KGgoAAAANSUhEUgAAAEAAAAAoCAYAAABOzvzpAAAAAXNSR0IArs4c6QAAAF1JREFUaEPt1QERADAMArHi33SFfOagHBm7+Fv8/hOABsQTQCBeAJ8gAgjEE0AgXgArgAAC8QQQiBfACiCAQDwBBOIFsAIIIBBPAIF4AawAAgjEE0AgXgArgECdwANfiQApEtGAKwAAAABJRU5ErkJggg==;" parent="1" vertex="1"><mxGeometry x="384" y="80" width="64" height="40" as="geometry"/></mxCell><mxCell id="133" value="" style="shape=image;verticalLabelPosition=bottom;labelBackgroundColor=default;verticalAlign=top;imageAspect=0;image=data:image/png,iVBORw0KGgoAAAANSUhEUgAAAEAAAAAoCAYAAABOzvzpAAAAAXNSR0IArs4c6QAAAF1JREFUaEPt1QERADAMArHi33SFfOagHBm7+Fv8/hOABsQTQCBeAJ8gAgjEE0AgXgArgAAC8QQQiBfACiCAQDwBBOIFsAIIIBBPAIF4AawAAgjEE0AgXgArgECdwANfiQApEtGAKwAAAABJRU5ErkJggg==;" parent="1" vertex="1"><mxGeometry x="448" y="320" width="64" height="40" as="geometry"/></mxCell><mxCell id="134" value="" style="shape=image;verticalLabelPosition=bottom;labelBackgroundColor=default;verticalAlign=top;imageAspect=0;image=data:image/png,iVBORw0KGgoAAAANSUhEUgAAAEAAAAAoCAYAAABOzvzpAAAAAXNSR0IArs4c6QAAAF1JREFUaEPt1QERADAMArHi33SFfOagHBm7+Fv8/hOABsQTQCBeAJ8gAgjEE0AgXgArgAAC8QQQiBfACiCAQDwBBOIFsAIIIBBPAIF4AawAAgjEE0AgXgArgECdwANfiQApEtGAKwAAAABJRU5ErkJggg==;" parent="1" vertex="1"><mxGeometry x="448" y="360" width="64" height="40" as="geometry"/></mxCell><mxCell id="135" value="" style="shape=image;verticalLabelPosition=bottom;labelBackgroundColor=default;verticalAlign=top;imageAspect=0;image=data:image/png,iVBORw0KGgoAAAANSUhEUgAAAEAAAAAoCAYAAABOzvzpAAAAAXNSR0IArs4c6QAAAF1JREFUaEPt1QERADAMArHi33SFfOagHBm7+Fv8/hOABsQTQCBeAJ8gAgjEE0AgXgArgAAC8QQQiBfACiCAQDwBBOIFsAIIIBBPAIF4AawAAgjEE0AgXgArgECdwANfiQApEtGAKwAAAABJRU5ErkJggg==;" parent="1" vertex="1"><mxGeometry x="448" y="400" width="64" height="40" as="geometry"/></mxCell><mxCell id="136" value="" style="shape=image;verticalLabelPosition=bottom;labelBackgroundColor=default;verticalAlign=top;imageAspect=0;image=data:image/png,iVBORw0KGgoAAAANSUhEUgAAAEAAAAAoCAYAAABOzvzpAAAAAXNSR0IArs4c6QAAAF1JREFUaEPt1QERADAMArHi33SFfOagHBm7+Fv8/hOABsQTQCBeAJ8gAgjEE0AgXgArgAAC8QQQiBfACiCAQDwBBOIFsAIIIBBPAIF4AawAAgjEE0AgXgArgECdwANfiQApEtGAKwAAAABJRU5ErkJggg==;" parent="1" vertex="1"><mxGeometry x="448" y="280" width="64" height="40" as="geometry"/></mxCell><mxCell id="137" value="" style="shape=image;verticalLabelPosition=bottom;labelBackgroundColor=default;verticalAlign=top;imageAspect=0;image=data:image/png,iVBORw0KGgoAAAANSUhEUgAAAEAAAAAoCAYAAABOzvzpAAAAAXNSR0IArs4c6QAAAF1JREFUaEPt1QERADAMArHi33SFfOagHBm7+Fv8/hOABsQTQCBeAJ8gAgjEE0AgXgArgAAC8QQQiBfACiCAQDwBBOIFsAIIIBBPAIF4AawAAgjEE0AgXgArgECdwANfiQApEtGAKwAAAABJRU5ErkJggg==;" parent="1" vertex="1"><mxGeometry x="448" y="240" width="64" height="40" as="geometry"/></mxCell><mxCell id="138" value="" style="shape=image;verticalLabelPosition=bottom;labelBackgroundColor=default;verticalAlign=top;imageAspect=0;image=data:image/png,iVBORw0KGgoAAAANSUhEUgAAAEAAAAAoCAYAAABOzvzpAAAAAXNSR0IArs4c6QAAAF1JREFUaEPt1QERADAMArHi33SFfOagHBm7+Fv8/hOABsQTQCBeAJ8gAgjEE0AgXgArgAAC8QQQiBfACiCAQDwBBOIFsAIIIBBPAIF4AawAAgjEE0AgXgArgECdwANfiQApEtGAKwAAAABJRU5ErkJggg==;" parent="1" vertex="1"><mxGeometry x="448" y="160" width="64" height="40" as="geometry"/></mxCell><mxCell id="139" value="" style="shape=image;verticalLabelPosition=bottom;labelBackgroundColor=default;verticalAlign=top;imageAspect=0;image=data:image/png,iVBORw0KGgoAAAANSUhEUgAAAEAAAAAoCAYAAABOzvzpAAAAAXNSR0IArs4c6QAAAF1JREFUaEPt1QERADAMArHi33SFfOagHBm7+Fv8/hOABsQTQCBeAJ8gAgjEE0AgXgArgAAC8QQQiBfACiCAQDwBBOIFsAIIIBBPAIF4AawAAgjEE0AgXgArgECdwANfiQApEtGAKwAAAABJRU5ErkJggg==;" parent="1" vertex="1"><mxGeometry x="448" y="200" width="64" height="40" as="geometry"/></mxCell><mxCell id="140" value="" style="shape=image;verticalLabelPosition=bottom;labelBackgroundColor=default;verticalAlign=top;imageAspect=0;image=data:image/png,iVBORw0KGgoAAAANSUhEUgAAAEAAAAAoCAYAAABOzvzpAAAAAXNSR0IArs4c6QAAAF1JREFUaEPt1QERADAMArHi33SFfOagHBm7+Fv8/hOABsQTQCBeAJ8gAgjEE0AgXgArgAAC8QQQiBfACiCAQDwBBOIFsAIIIBBPAIF4AawAAgjEE0AgXgArgECdwANfiQApEtGAKwAAAABJRU5ErkJggg==;" parent="1" vertex="1"><mxGeometry x="448" y="120" width="64" height="40" as="geometry"/></mxCell><mxCell id="141" value="" style="shape=image;verticalLabelPosition=bottom;labelBackgroundColor=default;verticalAlign=top;imageAspect=0;image=data:image/png,iVBORw0KGgoAAAANSUhEUgAAAEAAAAAoCAYAAABOzvzpAAAAAXNSR0IArs4c6QAAAF1JREFUaEPt1QERADAMArHi33SFfOagHBm7+Fv8/hOABsQTQCBeAJ8gAgjEE0AgXgArgAAC8QQQiBfACiCAQDwBBOIFsAIIIBBPAIF4AawAAgjEE0AgXgArgECdwANfiQApEtGAKwAAAABJRU5ErkJggg==;" parent="1" vertex="1"><mxGeometry x="448" y="40" width="64" height="40" as="geometry"/></mxCell><mxCell id="142" value="" style="shape=image;verticalLabelPosition=bottom;labelBackgroundColor=default;verticalAlign=top;imageAspect=0;image=data:image/png,iVBORw0KGgoAAAANSUhEUgAAAEAAAAAoCAYAAABOzvzpAAAAAXNSR0IArs4c6QAAAF1JREFUaEPt1QERADAMArHi33SFfOagHBm7+Fv8/hOABsQTQCBeAJ8gAgjEE0AgXgArgAAC8QQQiBfACiCAQDwBBOIFsAIIIBBPAIF4AawAAgjEE0AgXgArgECdwANfiQApEtGAKwAAAABJRU5ErkJggg==;" parent="1" vertex="1"><mxGeometry x="448" y="80" width="64" height="40" as="geometry"/></mxCell><mxCell id="143" value="" style="shape=image;verticalLabelPosition=bottom;labelBackgroundColor=default;verticalAlign=top;imageAspect=0;image=data:image/png,iVBORw0KGgoAAAANSUhEUgAAAEAAAAAoCAYAAABOzvzpAAAAAXNSR0IArs4c6QAAAARnQU1BAACxjwv8YQUAAAAJcEhZcwAADsMAAA7DAcdvqGQAAADTSURBVGhD7dShCsJQFMbxOx/AYJsvsGLSbBEEfQiDWRC7ZcUugtngQygIFrP2PcGawRdQzvFemEPU4BHD/wfjOxssnO+OOQAAAAAAABhpNdtXufzt34h8mpPlp93EzXaZO54O0asyev2x5naz0FlS3tGHX2ZeQHHRYVx1q/xynyepZtlo0NFcrvc6S67mqVkBFZ8mwqkH9UasGU647Nny1ky/ACng4dQLc7mEOKlp5tlZZ0lh+fkL8wL8qEIB7/4BRZbL/5Qs/OnSAAAAAAAAdpy7AUUUT3G18uswAAAAAElFTkSuQmCC;" parent="1" vertex="1"><mxGeometry width="64" height="40" as="geometry"/></mxCell><mxCell id="144" value="" style="shape=image;verticalLabelPosition=bottom;labelBackgroundColor=default;verticalAlign=top;imageAspect=0;image=data:image/png,iVBORw0KGgoAAAANSUhEUgAAAEAAAAAoCAYAAABOzvzpAAAAAXNSR0IArs4c6QAAAARnQU1BAACxjwv8YQUAAAAJcEhZcwAADsMAAA7DAcdvqGQAAAC7SURBVGhD7dQhCgJREMbxpwcw2PYE2zVbBEHZMxjMghewWOwimjd4CAXBYtbuCexeQJlhhA0bLPN4K/8fLN/Mpp15ywsAAAAAAABw0u8N3vJYm4y2ZRTLUa6LsDYJLUs31YFnWSeUz5d19caThebpuNVaUtzuV5dvdV2ADC+nvj4/tP/WMliWd/Vd1Xw61NwfLlpLinKzau4CrFS//AF1vIaPSpaxK4rkLsKol6Cc/l+cJgAAAAAAaLAQPg67NxSIMz/OAAAAAElFTkSuQmCC;" parent="1" vertex="1"><mxGeometry x="64" width="64" height="40" as="geometry"/></mxCell><mxCell id="145" value="" style="shape=image;verticalLabelPosition=bottom;labelBackgroundColor=default;verticalAlign=top;imageAspect=0;image=data:image/png,iVBORw0KGgoAAAANSUhEUgAAAEAAAAAoCAYAAABOzvzpAAAAAXNSR0IArs4c6QAAAARnQU1BAACxjwv8YQUAAAAJcEhZcwAADsMAAA7DAcdvqGQAAACjSURBVGhD7dQxDoJQDIDhpwdg9wTsOjOa4DG4gBdg5gJegGNAwuiMk4sXkN0LQNq84cXExaSkCf+XkLZvem2BAAAAAAAAACOnYzHLE0s39jGuoj7nOohYumA+gHTz7+ekZ57sYjQhjcvWm+GldZr/Ul6uGvvuprlEMT7uJnc1HYBIX/nqkIV2+pg18w/zT0Ca9dTwt1V/gt62DwAAAAAAtiiEBR7kLE1C0j+fAAAAAElFTkSuQmCC;" parent="1" vertex="1"><mxGeometry x="128" width="64" height="40" as="geometry"/></mxCell><mxCell id="146" value="" style="shape=image;verticalLabelPosition=bottom;labelBackgroundColor=default;verticalAlign=top;imageAspect=0;image=data:image/png,iVBORw0KGgoAAAANSUhEUgAAAEAAAAAoCAYAAABOzvzpAAAAAXNSR0IArs4c6QAAAARnQU1BAACxjwv8YQUAAAAJcEhZcwAADsMAAA7DAcdvqGQAAAC7SURBVGhD7dQhCgJREMbxpwcw2PYE2zVbBEHZMxjMghewWOwimjd4CAXBYtbuCexeQJlxFsS0ZR5v4f+Dx8y03W8eLwAAAAAAAMBJvzd4y7ExGW2rUSxHuQZhYxJaVl38/+ws64Ty+bKpvtv96vad7gHI1tfnh85VP54sdBZZ3rXuaz4dat0fLtpLLTcrtxBcAxC/t6DuDagCOh232kv1vAVRSBC7okjuIYz6CMr2G79JAAAAAADQcCF8AM9oNxRHXmvpAAAAAElFTkSuQmCC;" parent="1" vertex="1"><mxGeometry x="192" width="64" height="40" as="geometry"/></mxCell><mxCell id="147" value="" style="shape=image;verticalLabelPosition=bottom;labelBackgroundColor=default;verticalAlign=top;imageAspect=0;image=data:image/png,iVBORw0KGgoAAAANSUhEUgAAAEAAAAAoCAYAAABOzvzpAAAAAXNSR0IArs4c6QAAAARnQU1BAACxjwv8YQUAAAAJcEhZcwAADsMAAA7DAcdvqGQAAADXSURBVGhD7dQxCsJAEIXhjQewsIsXSGOltY0g6CEsUgtib5PGXgRrCw+hINhYa58TpLPwAsoMuxhiQAsHLP4PwpslKXaWyToAAAAAAAAY6XX7D3n88m9EPk1UG14ME7c85u5yPUfVd6PxTPOwX2stKeRbLYyYH0AaN922uOu6XIeG46SlKaaTgeZmd9JacrvKTA+h4dNMuxP76lWH5qukYRGal0zn2dsk/ZLpBIjy5usmoE6YiiK/aW05BeYHEJR/h7o74BPru8CcNGw5ygAAAAAAAN9x7gnOB006KEEjfwAAAABJRU5ErkJggg==;" parent="1" vertex="1"><mxGeometry x="256" width="64" height="40" as="geometry"/></mxCell><mxCell id="148" value="" style="shape=image;verticalLabelPosition=bottom;labelBackgroundColor=default;verticalAlign=top;imageAspect=0;image=data:image/png,iVBORw0KGgoAAAANSUhEUgAAAEAAAAAoCAYAAABOzvzpAAAAAXNSR0IArs4c6QAAAARnQU1BAACxjwv8YQUAAAAJcEhZcwAADsMAAA7DAcdvqGQAAAC7SURBVGhD7dQhCgJREMbxpwcw2PYE2zVbBEHZMxjMghewWOwimjd4CAXBYtbuCexeQJlxhMW0ZR5v4f+DZWbavu8NLwAAAAAAAMBJvzd4y2djMtpWo1iOcg3CxiS0rLr4P+ws64Ty+bKpvtv96vaf7gFUDy0bsD4/wniy0Flkede6r/l0qHV/uGgvtdys3EJwDUBUt6DuBvwCOh232kv13IIoJIhdUST3EEZ9BOX2G3+TAAAAAACg4UL4AM3sNxSkqxLEAAAAAElFTkSuQmCC;" parent="1" vertex="1"><mxGeometry x="320" width="64" height="40" as="geometry"/></mxCell><mxCell id="149" value="" style="shape=image;verticalLabelPosition=bottom;labelBackgroundColor=default;verticalAlign=top;imageAspect=0;image=data:image/png,iVBORw0KGgoAAAANSUhEUgAAAEAAAAAoCAYAAABOzvzpAAAAAXNSR0IArs4c6QAAAARnQU1BAACxjwv8YQUAAAAJcEhZcwAADsMAAA7DAcdvqGQAAACmSURBVGhD7dS7DcJADIDhCwOkZwJ6qCkjkTFYIAtQZ4EswBhESpk6VDQsQPosALJ1kaIUFEg+WeL/pJPPV519jwAAAAAAAAAjh/3xLSOmbmxiTOJS7LQRMXXBvAHLk389Rl3zJIvRhBR+3ubhOk6ayw2ou6fOvzmVlcb21uhc4nDvTfZq2gCxvPJzM6yK+YX5E5BiPRW8lvQT9Hb6AAAAAADgH4XwAQVoLE2Jm7xtAAAAAElFTkSuQmCC;" parent="1" vertex="1"><mxGeometry x="384" width="64" height="40" as="geometry"/></mxCell><mxCell id="150" value="" style="shape=image;verticalLabelPosition=bottom;labelBackgroundColor=default;verticalAlign=top;imageAspect=0;image=data:image/png,iVBORw0KGgoAAAANSUhEUgAAAEAAAAAoCAYAAABOzvzpAAAAAXNSR0IArs4c6QAAAARnQU1BAACxjwv8YQUAAAAJcEhZcwAADsMAAA7DAcdvqGQAAAC8SURBVGhD7dQxCsIwFMbx6AE6uPUE3e3sIghKz+DgLHgBFxd3EZ07eAgFoYuz7p7A3Qso7/GGDB1cElL5/yB8L536XkIcAAAAAAAAAimHo48s2yajbxnFelLoIGybhJ5lMH7Dizxz9ettu3bT2Urzct5rLSnuj1uQfw06AGneb1puwPb61MbyYqDffMv5WPN4arSWFPVu090BWKl+uQFtQjUflQzjUFXJPYRRH0E5/b84TQAAAAAA0GHOfQENPzcU3bg11wAAAABJRU5ErkJggg==;" parent="1" vertex="1"><mxGeometry x="448" width="64" height="40" as="geometry"/></mxCell></root></mxGraphModel></diagram></mxfile>